<svg width="20" height="20" viewBox="0 0 20 20" fill="none" xmlns="http://www.w3.org/2000/svg">
<path d="M11.7389 7.89092L13.4949 6.05125M14.4983 5L13.4949 6.05125L14.4983 5ZM9.67688 10.0512C9.93593 10.319 10.1419 10.6378 10.2828 10.9894C10.4238 11.3409 10.497 11.7181 10.4982 12.0994C10.4994 12.4807 10.4286 12.8584 10.2899 13.2109C10.1512 13.5634 9.94733 13.8837 9.69 14.1533C9.43266 14.4229 9.12697 14.6365 8.79051 14.7818C8.45406 14.9271 8.09349 15.0013 7.72957 15C7.36564 14.9987 7.00556 14.922 6.67004 14.7743C6.33452 14.6267 6.0302 14.4109 5.77459 14.1395C5.27195 13.5943 4.99382 12.864 5.0001 12.106C5.00639 11.3481 5.29659 10.623 5.80821 10.087C6.31982 9.55097 7.01191 9.24694 7.73542 9.24035C8.45892 9.23376 9.15595 9.52515 9.67638 10.0518L9.67688 10.0512ZM9.67688 10.0512L11.7389 7.89092L9.67688 10.0512ZM11.7389 7.89092L13.244 9.46779L15 7.62811L13.4949 6.05125L11.7389 7.89092Z" stroke="#AAFC20" stroke-linecap="round" stroke-linejoin="round"/>
</svg>
